<svg width="16" height="16" viewBox="0 0 16 16" fill="none" xmlns="http://www.w3.org/2000/svg">
<path d="M8 6V8.66667" stroke="#0A0A0A" stroke-width="1.33333" stroke-linecap="round" stroke-linejoin="round"/>
<path d="M6.90862 2.394L1.50462 11.4167C1.39321 11.6096 1.33426 11.8283 1.33362 12.0511C1.33299 12.2739 1.39068 12.4929 1.50098 12.6865C1.61128 12.88 1.77033 13.0414 1.96231 13.1544C2.15429 13.2674 2.37252 13.3282 2.59528 13.3307H13.4046C13.6273 13.3281 13.8454 13.2673 14.0373 13.1543C14.2292 13.0413 14.3882 12.8801 14.4984 12.6867C14.6087 12.4932 14.6664 12.2743 14.6659 12.0516C14.6653 11.8289 14.6065 11.6102 14.4953 11.4173L9.09128 2.39333C8.97759 2.20567 8.81742 2.05049 8.62625 1.9428C8.43508 1.8351 8.21937 1.77852 7.99995 1.77852C7.78053 1.77852 7.56482 1.8351 7.37365 1.9428C7.18248 2.05049 7.02231 2.20567 6.90862 2.39333V2.394Z" stroke="#0A0A0A" stroke-width="1.33333" stroke-linecap="round" stroke-linejoin="round"/>
<path d="M8 10.6667H8.00667" stroke="#0A0A0A" stroke-width="1.33333" stroke-linecap="round" stroke-linejoin="round"/>
</svg>
