<svg width="14" height="14" viewBox="0 0 14 14" fill="none" xmlns="http://www.w3.org/2000/svg">
<path d="M4.08333 4.08334H3.5C3.19058 4.08334 2.89384 4.20626 2.67504 4.42505C2.45625 4.64384 2.33333 4.94059 2.33333 5.25001V10.5C2.33333 10.8094 2.45625 11.1062 2.67504 11.325C2.89384 11.5438 3.19058 11.6667 3.5 11.6667H8.75C9.05942 11.6667 9.35617 11.5438 9.57496 11.325C9.79375 11.1062 9.91667 10.8094 9.91667 10.5V9.91668" stroke="#737373" stroke-width="1.5" stroke-linecap="round" stroke-linejoin="round"/>
<path d="M11.8912 3.84125C12.121 3.61151 12.2501 3.29991 12.2501 2.975C12.2501 2.65009 12.121 2.3385 11.8912 2.10875C11.6615 1.87901 11.3499 1.74994 11.025 1.74994C10.7001 1.74994 10.3885 1.87901 10.1588 2.10875L5.25 7V8.75H7L11.8912 3.84125Z" stroke="#737373" stroke-width="1.5" stroke-linecap="round" stroke-linejoin="round"/>
<path d="M9.33333 2.91666L11.0833 4.66666" stroke="#737373" stroke-width="1.5" stroke-linecap="round" stroke-linejoin="round"/>
</svg>
